<?xml version="1.0" encoding="UTF-8"?>
<svg id="Layer_1" xmlns="http://www.w3.org/2000/svg" version="1.1" viewBox="0 0 1080 1080">
  <!-- Generator: Adobe Illustrator 30.2.1, SVG Export Plug-In . SVG Version: 2.1.1 Build 1)  -->
  <defs>
    <style>
      .st0 {
        fill: #77b900;
      }
    </style>
  </defs>
  <path class="st0" d="M589.45,457.85l46.48-46.48c-29.49-27.15-68.33-44.34-111.1-46.09-2.42-.1-4.84-.15-7.28-.15s-4.89.05-7.31.15c-42.75,1.78-81.58,18.92-111.08,46.09-3.6,3.29-7.05,6.74-10.32,10.32-19.79,21.46-34.28,47.92-41.36,77.21-2.68,10.94-4.3,22.26-4.76,33.89-.1,2.42-.15,4.84-.15,7.28s.05,4.89.15,7.31c1.78,42.75,18.94,81.58,46.12,111.08l46.48-46.48c-15.36-17.5-25.2-39.94-26.82-64.6-.18-2.42-.26-4.84-.26-7.31s.08-4.89.26-7.28c.77-11.92,3.5-23.32,7.82-33.89,4.58-11.32,11.04-21.7,18.99-30.73,3.19-3.68,6.64-7.13,10.32-10.32,17.5-15.36,39.94-25.2,64.6-26.82,2.42-.18,4.84-.26,7.31-.26s4.89.08,7.28.26c24.66,1.62,47.12,11.45,64.62,26.82Z"/>
  <path class="st0" d="M524.83,649.12v65.76c42.77-1.75,81.61-18.94,111.1-46.09l-46.48-46.48c-17.5,15.36-39.97,25.2-64.62,26.82Z"/>
  <path class="st0" d="M399.16,668.79c29.49,27.18,68.33,44.32,111.08,46.09v-65.76c-24.66-1.62-47.1-11.45-64.6-26.82l-46.48,46.48Z"/>
  <path class="st0" d="M692.35,532.79c-.46-11.63-2.08-22.96-4.76-33.89h-118.54l-33.9,33.89-7.28,7.28-3.04,3.04-4.27,4.27h106.03c-1.62,24.66-11.45,47.1-26.82,64.6l46.48,46.48c27.18-29.49,44.32-68.33,46.09-111.08.1-2.42.15-4.86.15-7.31s-.05-4.86-.15-7.28Z"/>
</svg>